# xmcd
#
# Track frame offsets:
#	150
#	24405
#	37720
#	48985
#	60960
#	79275
#	97230
#	123995
#	142445
#	149695
#	170260
#	189735
#	193660
#	205945
#	224505
#	249480
#	302045
#	318405
#
# Disc length: 4469 seconds
#
# Revision: 0
# Processed by: cddbd v1.5.2PL0 Copyright (c) Steve Scherf et al.
# Submitted via: EasyCDDAExtractor 10.0.2.1
#
DISCID=0f117312
DTITLE=Alice Cooper - Sportshalle Böblingen (Stuttgart) 20-04-88 
DYEAR=1988
DGENRE=Hard Rock
TTITLE0=Teenage Frankenstein
TTITLE1=No More Mr Nice Guy
TTITLE2=Billion Dollar Babies
TTITLE3=Is It My Body
TTITLE4=Eighteen
TTITLE5=Go To Hell
TTITLE6=Prince Of Darkness
TTITLE7=Chop Chop Chop
TTITLE8=Gail
TTITLE9=Roses On White Lace
TTITLE10=Only Women Bleed
TTITLE11=Devils Food
TTITLE12=Black Widow
TTITLE13=Dead Babies
TTITLE14=Killer
TTITLE15=School's Out Incl Solos
TTITLE16=Freedom
TTITLE17=Under My Wheels
EXTD=
EXTT0=
EXTT1=
EXTT2=
EXTT3=
EXTT4=
EXTT5=
EXTT6=
EXTT7=
EXTT8=
EXTT9=
EXTT10=
EXTT11=
EXTT12=
EXTT13=
EXTT14=
EXTT15=
EXTT16=
EXTT17=
PLAYORDER=
